<!--?xml version="1.0" standalone="no"?-->
              <svg id="sw-js-blob-svg" viewBox="0 0 100 100" xmlns="http://www.w3.org/2000/svg" version="1.1">
                    <defs> 
                        <linearGradient id="sw-gradient" x1="0" x2="1" y1="1" y2="0">
                            <stop id="stop1" stop-color="rgba(255, 208, 0, 1)" offset="0%"></stop>
                            <stop id="stop2" stop-color="rgba(255, 208, 0, 1)" offset="100%"></stop>
                        </linearGradient>
                    </defs>
                <path fill="none" d="M16.7,-28.5C18.8,-24.7,15.5,-15.2,18.6,-8.5C21.7,-1.8,31.1,2,33.8,7.1C36.5,12.1,32.5,18.4,27.8,24.4C23.1,30.3,17.6,35.9,12.2,34C6.8,32.1,1.4,22.8,-5.4,20C-12.2,17.3,-20.4,21.1,-22.5,19.2C-24.6,17.4,-20.5,9.9,-21.3,3.1C-22.2,-3.6,-28,-9.5,-27.4,-13.1C-26.7,-16.7,-19.5,-18,-13.9,-20.2C-8.2,-22.3,-4.1,-25.4,1.6,-27.9C7.3,-30.4,14.7,-32.4,16.7,-28.5Z" width="100%" height="100%" transform="translate(50 50)" stroke-width="1" style="transition: 0.3s;" stroke="url(#sw-gradient)"></path>
              </svg>