<!--?xml version="1.0" standalone="no"?-->
              <svg id="sw-js-blob-svg" viewBox="0 0 100 100" xmlns="http://www.w3.org/2000/svg" version="1.1">
                    <defs> 
                        <linearGradient id="sw-gradient" x1="0" x2="1" y1="1" y2="0">
                            <stop id="stop1" stop-color="rgba(255, 208, 0, 1)" offset="0%"></stop>
                            <stop id="stop2" stop-color="rgba(255, 208, 0, 1)" offset="100%"></stop>
                        </linearGradient>
                    </defs>
                <path fill="none" d="M18.7,-25.5C25.4,-24.8,32.6,-21.5,35.7,-16C38.9,-10.4,37.8,-2.5,35.4,4.1C32.9,10.8,29.1,16.4,24.6,21.1C20.1,25.7,15,29.6,8.7,32.9C2.5,36.2,-4.9,38.9,-9.7,36.1C-14.5,33.3,-16.8,24.9,-20.3,18.8C-23.8,12.6,-28.6,8.7,-30.6,3.6C-32.7,-1.6,-32,-8,-30.7,-15.3C-29.3,-22.5,-27.2,-30.7,-21.9,-32.1C-16.7,-33.4,-8.3,-27.8,-1.2,-26C6,-24.2,12.1,-26.2,18.7,-25.5Z" width="100%" height="100%" transform="translate(50 50)" stroke-width="1" style="transition: 0.3s;" stroke="url(#sw-gradient)"></path>
              </svg>